<?xml version="1.0" encoding="utf-8"?>
<!-- Generator: Adobe Illustrator 16.0.0, SVG Export Plug-In . SVG Version: 6.00 Build 0)  -->
<!DOCTYPE svg PUBLIC "-//W3C//DTD SVG 1.1//EN" "http://www.w3.org/Graphics/SVG/1.1/DTD/svg11.dtd">
<svg version="1.1" id="Layer_1" xmlns="http://www.w3.org/2000/svg" xmlns:xlink="http://www.w3.org/1999/xlink" x="0px" y="0px"
	 width="13.119px" height="19.003px" viewBox="0 0 13.119 19.003" enable-background="new 0 0 13.119 19.003" xml:space="preserve">
<g>
	<g>
		<path d="M6.08,12.106C6.062,12.094,4.101,8.59,4.094,8.545C3.689,7.604,3.362,6.642,4.043,6.215L1.212,1.146
			C0.48,1.729-1.595,4.89,2.288,12.051c4.092,7.549,7.984,7.234,8.766,6.724l-2.759-4.948C7.643,14.234,7.093,13.563,6.08,12.106z
			 M12.516,16.854V16.85c0,0-1.938-3.854-1.939-3.856c-0.17-0.306-0.43-0.401-0.717-0.224l-1.265,0.828l2.792,4.847
			c0,0,1.347-0.943,1.346-0.943h0.003C13.039,17.501,13.516,17.147,12.516,16.854z M5.516,5.164V5.161c1-0.19,1-0.585,0-0.876V4.281
			c0,0-2.005-3.967-2.006-3.968C3.339,0.006,3.076-0.088,2.792,0.089L1.524,0.918l2.75,5.072C4.273,5.99,5.516,5.166,5.516,5.164z"
			/>
	</g>
</g>
</svg>
