<svg xmlns="http://www.w3.org/2000/svg" width="13.119" height="19.003" viewBox="0 0 13.119 19.003"><path d="M6.08 12.106c-.018-.012-1.98-3.516-1.986-3.56-.405-.942-.732-1.904-.05-2.33L1.21 1.145C.48 1.73-1.595 4.89 2.288 12.05c4.092 7.55 7.984 7.235 8.766 6.725l-2.76-4.948c-.65.407-1.2-.264-2.214-1.72zm6.436 4.748v-.004l-1.94-3.856c-.17-.306-.43-.4-.716-.224l-1.265.828 2.792 4.847 1.346-.943h.003c.303 0 .78-.355-.22-.648zm-7-11.69V5.16c1-.19 1-.584 0-.875V4.28L3.51.314c-.17-.307-.434-.4-.718-.224L1.524.917l2.75 5.072s1.242-.824 1.242-.826z"/></svg>